<svg width="60" height="62" viewBox="0 0 60 62" fill="none" xmlns="http://www.w3.org/2000/svg">
<g clip-path="url(#clip0_34_8)">
<path d="M30 0C21.8587 0 20.835 0.03875 17.6362 0.186C14.4375 0.341 12.2587 0.86025 10.35 1.6275C8.34785 2.40567 6.53434 3.62633 5.03625 5.20413C3.51029 6.75295 2.32915 8.62668 1.575 10.695C0.8325 12.6635 0.32625 14.9187 0.18 18.2125C0.0375 21.5256 0 22.5796 0 31.0039C0 39.4204 0.0375 40.4744 0.18 43.7798C0.33 47.0813 0.8325 49.3326 1.575 51.305C2.34375 53.3433 3.3675 55.0715 5.03625 56.7959C6.70125 58.5202 8.37375 59.582 10.3463 60.3725C12.2587 61.1398 14.4338 61.6629 17.6287 61.814C20.8313 61.9613 21.8512 62 30 62C38.1488 62 39.165 61.9613 42.3675 61.814C45.5588 61.659 47.745 61.1398 49.6538 60.3725C51.6546 59.5939 53.4668 58.3733 54.9637 56.7959C56.6325 55.0715 57.6562 53.3433 58.425 51.305C59.1637 49.3326 59.67 47.0813 59.82 43.7798C59.9625 40.4744 60 39.4204 60 31C60 22.5796 59.9625 21.5256 59.82 18.2164C59.67 14.9188 59.1637 12.6635 58.425 10.695C57.671 8.62662 56.4898 6.75287 54.9637 5.20413C53.4661 3.62574 51.6525 2.405 49.65 1.6275C47.7375 0.86025 45.555 0.337125 42.3638 0.186C39.1613 0.03875 38.145 0 29.9925 0H30.0038H30ZM27.3113 5.58775H30.0038C38.0138 5.58775 38.9625 5.61488 42.1237 5.766C45.0487 5.90163 46.6387 6.40925 47.6963 6.83162C49.095 7.3935 50.0962 8.06775 51.1462 9.15275C52.1963 10.2378 52.845 11.2685 53.3888 12.7178C53.8013 13.8066 54.2887 15.4496 54.42 18.4721C54.5662 21.7388 54.5962 22.7191 54.5962 30.9923C54.5962 39.2654 54.5662 40.2496 54.42 43.5162C54.2887 46.5387 53.7975 48.1779 53.3888 49.2706C52.9078 50.6166 52.1401 51.8337 51.1425 52.8317C50.0925 53.9167 49.095 54.5871 47.6925 55.149C46.6425 55.5753 45.0525 56.079 42.1237 56.2185C38.9625 56.3658 38.0138 56.4006 30.0038 56.4006C21.9938 56.4006 21.0413 56.3658 17.88 56.2185C14.955 56.079 13.3687 55.5753 12.3112 55.149C11.0081 54.6527 9.82922 53.8609 8.86125 52.8317C7.86282 51.8321 7.09396 50.6139 6.61125 49.2668C6.2025 48.1779 5.71125 46.5349 5.58 43.5124C5.4375 40.2458 5.4075 39.2654 5.4075 30.9845C5.4075 22.7075 5.4375 21.731 5.58 18.4644C5.715 15.4419 6.2025 13.7989 6.615 12.7061C7.15875 11.2607 7.81125 10.2261 8.86125 9.14112C9.91125 8.05612 10.9087 7.38575 12.3112 6.82387C13.3687 6.39762 14.955 5.89388 17.88 5.75437C20.6475 5.62262 21.72 5.58388 27.3113 5.58V5.58775ZM46.0163 10.7338C45.5435 10.7338 45.0754 10.83 44.6386 11.0169C44.2018 11.2039 43.805 11.4779 43.4707 11.8233C43.1364 12.1687 42.8712 12.5788 42.6903 13.0302C42.5094 13.4815 42.4162 13.9652 42.4162 14.4537C42.4162 14.9423 42.5094 15.426 42.6903 15.8773C42.8712 16.3287 43.1364 16.7388 43.4707 17.0842C43.805 17.4296 44.2018 17.7036 44.6386 17.8906C45.0754 18.0775 45.5435 18.1737 46.0163 18.1737C46.971 18.1737 47.8867 17.7818 48.5618 17.0842C49.237 16.3866 49.6162 15.4404 49.6162 14.4537C49.6162 13.4671 49.237 12.5209 48.5618 11.8233C47.8867 11.1257 46.971 10.7338 46.0163 10.7338ZM30.0038 15.0815C27.9603 15.0486 25.9309 15.436 24.0337 16.2213C22.1365 17.0066 20.4094 18.174 18.9531 19.6556C17.4967 21.1373 16.3401 22.9034 15.5507 24.8514C14.7612 26.7993 14.3546 28.8901 14.3546 31.0019C14.3546 33.1138 14.7612 35.2046 15.5507 37.1525C16.3401 39.1004 17.4967 40.8666 18.9531 42.3482C20.4094 43.8298 22.1365 44.9973 24.0337 45.7826C25.9309 46.5679 27.9603 46.9553 30.0038 46.9224C34.0483 46.8572 37.9058 45.1512 40.7437 42.1726C43.5815 39.194 45.1721 35.1818 45.1721 31.0019C45.1721 26.8221 43.5815 22.8098 40.7437 19.8313C37.9058 16.8527 34.0483 15.1467 30.0038 15.0815ZM30.0038 20.6654C32.6562 20.6654 35.2001 21.7542 37.0757 23.6923C38.9513 25.6304 40.005 28.2591 40.005 31C40.005 33.7409 38.9513 36.3696 37.0757 38.3077C35.2001 40.2458 32.6562 41.3346 30.0038 41.3346C27.3513 41.3346 24.8074 40.2458 22.9318 38.3077C21.0562 36.3696 20.0025 33.7409 20.0025 31C20.0025 28.2591 21.0562 25.6304 22.9318 23.6923C24.8074 21.7542 27.3513 20.6654 30.0038 20.6654Z" fill="#FD1D1D"/>
</g>
<defs>
<clipPath id="clip0_34_8">
<rect width="60" height="62" fill="white"/>
</clipPath>
</defs>
</svg>
