<svg width="60" height="62" viewBox="0 0 60 62" fill="none" xmlns="http://www.w3.org/2000/svg">
<path d="M51.2343 9.01341C48.4711 6.14467 45.1806 3.87031 41.5544 2.32288C37.9282 0.775444 34.0388 -0.0141215 30.113 0.000191155C13.6627 0.000191155 0.256153 13.7874 0.241085 30.7133C0.241085 36.1345 1.61979 41.4083 4.22275 46.0777L0 62L15.8363 57.7298C20.2172 60.1823 25.1253 61.4678 30.113 61.4691H30.1281C46.5821 61.4691 59.9849 47.6819 60 30.7405C60.0038 26.7029 59.2308 22.7045 57.7258 18.9755C56.2207 15.2466 54.017 11.8609 51.2343 9.01341ZM30.113 56.2689C25.6642 56.2704 21.2972 55.0389 17.4711 52.7039L16.567 52.1459L7.17227 54.6801L9.68106 45.2523L9.09342 44.2797C6.6065 40.2122 5.29124 35.5029 5.3001 30.6978C5.3001 16.6471 16.439 5.18493 30.1281 5.18493C33.3893 5.17891 36.6194 5.83699 39.6322 7.12122C42.645 8.40546 45.3808 10.2905 47.6821 12.6675C49.9913 15.0353 51.822 17.85 53.0685 20.9493C54.315 24.0485 54.9527 27.371 54.9447 30.725C54.9297 44.8261 43.7908 56.2689 30.113 56.2689ZM43.7305 37.1497C42.9884 36.7661 39.3232 34.91 38.6338 34.6465C37.9483 34.3946 37.4473 34.2628 36.9576 35.0301C36.4565 35.7935 35.0251 37.5333 34.5957 38.0332C34.1662 38.5486 33.7217 38.6067 32.9759 38.2269C32.2338 37.8395 29.8267 37.0335 26.9789 34.4101C24.7564 32.3757 23.2685 29.857 22.824 29.0936C22.3945 28.3264 22.7825 27.9156 23.1554 27.532C23.4832 27.191 23.8975 26.633 24.2705 26.1912C24.6472 25.7495 24.7715 25.424 25.0163 24.9125C25.2612 24.3932 25.1444 23.9515 24.9598 23.5679C24.7715 23.1842 23.2835 19.3984 22.6544 17.8716C22.0517 16.3643 21.4377 16.5735 20.9781 16.5541C20.5487 16.527 20.0477 16.527 19.5467 16.527C19.1684 16.5367 18.7961 16.6267 18.4531 16.7914C18.1102 16.9561 17.8041 17.192 17.554 17.4841C16.8684 18.2514 14.951 20.1075 14.951 23.8934C14.951 27.6792 17.6256 31.3178 18.0023 31.8332C18.3714 32.3486 23.2534 40.0947 30.7458 43.4272C32.5163 44.2216 33.9101 44.6904 34.9987 45.0469C36.788 45.6359 38.4041 45.5468 39.6924 45.3569C41.1238 45.1322 44.1035 43.4969 44.7325 41.7028C45.3503 39.9048 45.3503 38.3703 45.162 38.0487C44.9774 37.7232 44.4764 37.5333 43.7305 37.1497Z" fill="#12910E"/>
</svg>
