<svg width="310" height="178" viewBox="0 0 310 178" fill="none" xmlns="http://www.w3.org/2000/svg">
<path d="M3 176L71 80H251L295 16" stroke="#B30000" stroke-width="5"/>
<path d="M92.94 69H88.494L81.058 57.742V69H76.612V50.748H81.058L88.494 62.058V50.748H92.94V69ZM110.489 54.492V69H106.043V67.024C105.592 67.6653 104.977 68.1853 104.197 68.584C103.434 68.9653 102.585 69.156 101.649 69.156C100.539 69.156 99.5601 68.9133 98.7108 68.428C97.8614 67.9253 97.2028 67.206 96.7348 66.27C96.2668 65.334 96.0328 64.2333 96.0328 62.968V54.492H100.453V62.37C100.453 63.3407 100.704 64.0947 101.207 64.632C101.709 65.1693 102.385 65.438 103.235 65.438C104.101 65.438 104.786 65.1693 105.289 64.632C105.791 64.0947 106.043 63.3407 106.043 62.37V54.492H110.489ZM118.438 59.848C118.438 58.0453 118.828 56.442 119.608 55.038C120.388 53.6167 121.471 52.516 122.858 51.736C124.262 50.9387 125.848 50.54 127.616 50.54C129.783 50.54 131.637 51.112 133.18 52.256C134.723 53.4 135.754 54.96 136.274 56.936H131.386C131.022 56.1733 130.502 55.5927 129.826 55.194C129.167 54.7953 128.413 54.596 127.564 54.596C126.195 54.596 125.085 55.0727 124.236 56.026C123.387 56.9793 122.962 58.2533 122.962 59.848C122.962 61.4427 123.387 62.7167 124.236 63.67C125.085 64.6233 126.195 65.1 127.564 65.1C128.413 65.1 129.167 64.9007 129.826 64.502C130.502 64.1033 131.022 63.5227 131.386 62.76H136.274C135.754 64.736 134.723 66.296 133.18 67.44C131.637 68.5667 129.783 69.13 127.616 69.13C125.848 69.13 124.262 68.74 122.858 67.96C121.471 67.1627 120.388 66.062 119.608 64.658C118.828 63.254 118.438 61.6507 118.438 59.848ZM150.359 65.776H143.547L142.455 69H137.801L144.405 50.748H149.553L156.157 69H151.451L150.359 65.776ZM149.215 62.344L146.953 55.662L144.717 62.344H149.215ZM173.582 44.3L166.614 73.862H162.324L169.292 44.3H173.582ZM180.213 59.848C180.213 58.0453 180.603 56.442 181.383 55.038C182.163 53.6167 183.247 52.516 184.633 51.736C186.037 50.9387 187.623 50.54 189.391 50.54C191.558 50.54 193.413 51.112 194.955 52.256C196.498 53.4 197.529 54.96 198.049 56.936H193.161C192.797 56.1733 192.277 55.5927 191.601 55.194C190.943 54.7953 190.189 54.596 189.339 54.596C187.97 54.596 186.861 55.0727 186.011 56.026C185.162 56.9793 184.737 58.2533 184.737 59.848C184.737 61.4427 185.162 62.7167 186.011 63.67C186.861 64.6233 187.97 65.1 189.339 65.1C190.189 65.1 190.943 64.9007 191.601 64.502C192.277 64.1033 192.797 63.5227 193.161 62.76H198.049C197.529 64.736 196.498 66.296 194.955 67.44C193.413 68.5667 191.558 69.13 189.391 69.13C187.623 69.13 186.037 68.74 184.633 67.96C183.247 67.1627 182.163 66.062 181.383 64.658C180.603 63.254 180.213 61.6507 180.213 59.848ZM212.134 65.776H205.322L204.23 69H199.576L206.18 50.748H211.328L217.932 69H213.226L212.134 65.776ZM210.99 62.344L208.728 55.662L206.492 62.344H210.99ZM231.304 65.776H224.492L223.4 69H218.746L225.35 50.748H230.498L237.102 69H232.396L231.304 65.776ZM230.16 62.344L227.898 55.662L225.662 62.344H230.16Z" fill="black"/>
<path d="M118.864 93.6V90.504H124.648V108H121.192V93.6H118.864ZM144.414 91.248V93.96H137.43V98.256H142.782V100.92H137.43V108H134.07V91.248H144.414ZM145.933 101.304C145.933 99.96 146.197 98.768 146.725 97.728C147.269 96.688 147.997 95.888 148.909 95.328C149.837 94.768 150.869 94.488 152.005 94.488C152.997 94.488 153.861 94.688 154.597 95.088C155.349 95.488 155.949 95.992 156.397 96.6V94.704H159.781V108H156.397V106.056C155.965 106.68 155.365 107.2 154.597 107.616C153.845 108.016 152.973 108.216 151.981 108.216C150.861 108.216 149.837 107.928 148.909 107.352C147.997 106.776 147.269 105.968 146.725 104.928C146.197 103.872 145.933 102.664 145.933 101.304ZM156.397 101.352C156.397 100.536 156.237 99.84 155.917 99.264C155.597 98.672 155.165 98.224 154.621 97.92C154.077 97.6 153.493 97.44 152.869 97.44C152.245 97.44 151.669 97.592 151.141 97.896C150.613 98.2 150.181 98.648 149.845 99.24C149.525 99.816 149.365 100.504 149.365 101.304C149.365 102.104 149.525 102.808 149.845 103.416C150.181 104.008 150.613 104.464 151.141 104.784C151.685 105.104 152.261 105.264 152.869 105.264C153.493 105.264 154.077 105.112 154.621 104.808C155.165 104.488 155.597 104.04 155.917 103.464C156.237 102.872 156.397 102.168 156.397 101.352ZM168.15 108.216C167.062 108.216 166.086 108.024 165.222 107.64C164.358 107.24 163.67 106.704 163.158 106.032C162.662 105.36 162.39 104.616 162.342 103.8H165.726C165.79 104.312 166.038 104.736 166.47 105.072C166.918 105.408 167.47 105.576 168.126 105.576C168.766 105.576 169.262 105.448 169.614 105.192C169.982 104.936 170.166 104.608 170.166 104.208C170.166 103.776 169.942 103.456 169.494 103.248C169.062 103.024 168.366 102.784 167.406 102.528C166.414 102.288 165.598 102.04 164.958 101.784C164.334 101.528 163.79 101.136 163.326 100.608C162.878 100.08 162.654 99.368 162.654 98.472C162.654 97.736 162.862 97.064 163.278 96.456C163.71 95.848 164.318 95.368 165.102 95.016C165.902 94.664 166.838 94.488 167.91 94.488C169.494 94.488 170.758 94.888 171.702 95.688C172.646 96.472 173.166 97.536 173.262 98.88H170.046C169.998 98.352 169.774 97.936 169.374 97.632C168.99 97.312 168.47 97.152 167.814 97.152C167.206 97.152 166.734 97.264 166.398 97.488C166.078 97.712 165.918 98.024 165.918 98.424C165.918 98.872 166.142 99.216 166.59 99.456C167.038 99.68 167.734 99.912 168.678 100.152C169.638 100.392 170.43 100.64 171.054 100.896C171.678 101.152 172.214 101.552 172.662 102.096C173.126 102.624 173.366 103.328 173.382 104.208C173.382 104.976 173.166 105.664 172.734 106.272C172.318 106.88 171.71 107.36 170.91 107.712C170.126 108.048 169.206 108.216 168.15 108.216ZM188.5 101.064C188.5 101.544 188.468 101.976 188.404 102.36H178.684C178.764 103.32 179.1 104.072 179.692 104.616C180.284 105.16 181.012 105.432 181.876 105.432C183.124 105.432 184.012 104.896 184.54 103.824H188.164C187.78 105.104 187.044 106.16 185.956 106.992C184.868 107.808 183.532 108.216 181.948 108.216C180.668 108.216 179.516 107.936 178.492 107.376C177.484 106.8 176.692 105.992 176.116 104.952C175.556 103.912 175.276 102.712 175.276 101.352C175.276 99.976 175.556 98.768 176.116 97.728C176.676 96.688 177.46 95.888 178.468 95.328C179.476 94.768 180.636 94.488 181.948 94.488C183.212 94.488 184.34 94.76 185.332 95.304C186.34 95.848 187.116 96.624 187.66 97.632C188.22 98.624 188.5 99.768 188.5 101.064ZM185.02 100.104C185.004 99.24 184.692 98.552 184.084 98.04C183.476 97.512 182.732 97.248 181.852 97.248C181.02 97.248 180.316 97.504 179.74 98.016C179.18 98.512 178.836 99.208 178.708 100.104H185.02Z" fill="black"/>
<circle cx="300" cy="10" r="10" fill="#B30000"/>
<circle cx="300" cy="10" r="5" fill="white"/>
</svg>
