<svg width="310" height="178" viewBox="0 0 310 178" fill="none" xmlns="http://www.w3.org/2000/svg">
<path d="M3 176L71 80H251L295 16" stroke="#B30000" stroke-width="5"/>
<path d="M20.522 56.624C20.522 57.6813 20.2793 58.652 19.794 59.536C19.3087 60.4027 18.5633 61.1047 17.558 61.642C16.5527 62.1793 15.3047 62.448 13.814 62.448H11.058V69H6.612V50.748H13.814C15.27 50.748 16.5007 50.9993 17.506 51.502C18.5113 52.0047 19.2653 52.698 19.768 53.582C20.2707 54.466 20.522 55.48 20.522 56.624ZM13.476 58.912C14.3253 58.912 14.958 58.7127 15.374 58.314C15.79 57.9153 15.998 57.352 15.998 56.624C15.998 55.896 15.79 55.3327 15.374 54.934C14.958 54.5353 14.3253 54.336 13.476 54.336H11.058V58.912H13.476ZM27.2826 56.91C27.8026 56.1127 28.4526 55.4887 29.2326 55.038C30.0126 54.57 30.8793 54.336 31.8326 54.336V59.042H30.6106C29.5013 59.042 28.6693 59.2847 28.1146 59.77C27.5599 60.238 27.2826 61.07 27.2826 62.266V69H22.8366V54.492H27.2826V56.91ZM40.5617 69.208C39.1404 69.208 37.8577 68.9047 36.7137 68.298C35.587 67.6913 34.6944 66.8247 34.0357 65.698C33.3944 64.5713 33.0737 63.254 33.0737 61.746C33.0737 60.2553 33.403 58.9467 34.0617 57.82C34.7204 56.676 35.6217 55.8007 36.7657 55.194C37.9097 54.5873 39.1924 54.284 40.6137 54.284C42.035 54.284 43.3177 54.5873 44.4617 55.194C45.6057 55.8007 46.507 56.676 47.1657 57.82C47.8244 58.9467 48.1537 60.2553 48.1537 61.746C48.1537 63.2367 47.8157 64.554 47.1397 65.698C46.481 66.8247 45.571 67.6913 44.4097 68.298C43.2657 68.9047 41.983 69.208 40.5617 69.208ZM40.5617 65.36C41.411 65.36 42.1304 65.048 42.7197 64.424C43.3264 63.8 43.6297 62.9073 43.6297 61.746C43.6297 60.5847 43.335 59.692 42.7457 59.068C42.1737 58.444 41.463 58.132 40.6137 58.132C39.747 58.132 39.0277 58.444 38.4557 59.068C37.8837 59.6747 37.5977 60.5673 37.5977 61.746C37.5977 62.9073 37.875 63.8 38.4297 64.424C39.0017 65.048 39.7124 65.36 40.5617 65.36ZM58.5984 65.23V69H56.3364C54.7244 69 53.4677 68.61 52.5664 67.83C51.6651 67.0327 51.2144 65.7413 51.2144 63.956V58.184H49.4464V54.492H51.2144V50.956H55.6604V54.492H58.5724V58.184H55.6604V64.008C55.6604 64.4413 55.7644 64.7533 55.9724 64.944C56.1804 65.1347 56.5271 65.23 57.0124 65.23H58.5984ZM74.7509 61.512C74.7509 61.928 74.7249 62.3613 74.6729 62.812H64.6109C64.6802 63.7133 64.9662 64.4067 65.4689 64.892C65.9889 65.36 66.6216 65.594 67.3669 65.594C68.4762 65.594 69.2476 65.126 69.6809 64.19H74.4129C74.1702 65.1433 73.7282 66.0013 73.0869 66.764C72.4629 67.5267 71.6742 68.1247 70.7209 68.558C69.7676 68.9913 68.7016 69.208 67.5229 69.208C66.1016 69.208 64.8362 68.9047 63.7269 68.298C62.6176 67.6913 61.7509 66.8247 61.1269 65.698C60.5029 64.5713 60.1909 63.254 60.1909 61.746C60.1909 60.238 60.4942 58.9207 61.1009 57.794C61.7249 56.6673 62.5916 55.8007 63.7009 55.194C64.8102 54.5873 66.0842 54.284 67.5229 54.284C68.9269 54.284 70.1749 54.5787 71.2669 55.168C72.3589 55.7573 73.2082 56.598 73.8149 57.69C74.4389 58.782 74.7509 60.056 74.7509 61.512ZM70.2009 60.342C70.2009 59.5793 69.9409 58.9727 69.4209 58.522C68.9009 58.0713 68.2509 57.846 67.4709 57.846C66.7256 57.846 66.0929 58.0627 65.5729 58.496C65.0702 58.9293 64.7582 59.5447 64.6369 60.342H70.2009ZM82.6084 54.284C83.631 54.284 84.5237 54.492 85.2864 54.908C86.0664 55.324 86.6644 55.87 87.0804 56.546V54.492H91.5264V68.974C91.5264 70.3087 91.2577 71.5133 90.7204 72.588C90.2004 73.68 89.3944 74.5467 88.3024 75.188C87.2277 75.8293 85.8844 76.15 84.2724 76.15C82.123 76.15 80.381 75.6387 79.0464 74.616C77.7117 73.6107 76.949 72.2413 76.7584 70.508H81.1524C81.291 71.0627 81.6204 71.496 82.1404 71.808C82.6604 72.1373 83.3017 72.302 84.0644 72.302C84.983 72.302 85.711 72.0333 86.2484 71.496C86.803 70.976 87.0804 70.1353 87.0804 68.974V66.92C86.647 67.596 86.049 68.1507 85.2864 68.584C84.5237 69 83.631 69.208 82.6084 69.208C81.4124 69.208 80.329 68.9047 79.3584 68.298C78.3877 67.674 77.6164 66.7987 77.0444 65.672C76.4897 64.528 76.2124 63.2107 76.2124 61.72C76.2124 60.2293 76.4897 58.9207 77.0444 57.794C77.6164 56.6673 78.3877 55.8007 79.3584 55.194C80.329 54.5873 81.4124 54.284 82.6084 54.284ZM87.0804 61.746C87.0804 60.6367 86.7684 59.7613 86.1444 59.12C85.5377 58.4787 84.7924 58.158 83.9084 58.158C83.0244 58.158 82.2704 58.4787 81.6464 59.12C81.0397 59.744 80.7364 60.6107 80.7364 61.72C80.7364 62.8293 81.0397 63.7133 81.6464 64.372C82.2704 65.0133 83.0244 65.334 83.9084 65.334C84.7924 65.334 85.5377 65.0133 86.1444 64.372C86.7684 63.7307 87.0804 62.8553 87.0804 61.746ZM96.9789 52.984C96.1989 52.984 95.5575 52.7587 95.0549 52.308C94.5695 51.84 94.3269 51.268 94.3269 50.592C94.3269 49.8987 94.5695 49.3267 95.0549 48.876C95.5575 48.408 96.1989 48.174 96.9789 48.174C97.7415 48.174 98.3655 48.408 98.8509 48.876C99.3535 49.3267 99.6049 49.8987 99.6049 50.592C99.6049 51.268 99.3535 51.84 98.8509 52.308C98.3655 52.7587 97.7415 52.984 96.9789 52.984ZM99.1889 54.492V69H94.7429V54.492H99.1889ZM101.527 61.72C101.527 60.2293 101.804 58.9207 102.359 57.794C102.931 56.6673 103.702 55.8007 104.673 55.194C105.643 54.5873 106.727 54.284 107.923 54.284C108.876 54.284 109.743 54.4833 110.523 54.882C111.32 55.2807 111.944 55.818 112.395 56.494V49.76H116.841V69H112.395V66.92C111.979 67.6133 111.381 68.168 110.601 68.584C109.838 69 108.945 69.208 107.923 69.208C106.727 69.208 105.643 68.9047 104.673 68.298C103.702 67.674 102.931 66.7987 102.359 65.672C101.804 64.528 101.527 63.2107 101.527 61.72ZM112.395 61.746C112.395 60.6367 112.083 59.7613 111.459 59.12C110.852 58.4787 110.107 58.158 109.223 58.158C108.339 58.158 107.585 58.4787 106.961 59.12C106.354 59.744 106.051 60.6107 106.051 61.72C106.051 62.8293 106.354 63.7133 106.961 64.372C107.585 65.0133 108.339 65.334 109.223 65.334C110.107 65.334 110.852 65.0133 111.459 64.372C112.083 63.7307 112.395 62.8553 112.395 61.746ZM126.661 69.208C125.24 69.208 123.957 68.9047 122.813 68.298C121.687 67.6913 120.794 66.8247 120.135 65.698C119.494 64.5713 119.173 63.254 119.173 61.746C119.173 60.2553 119.503 58.9467 120.161 57.82C120.82 56.676 121.721 55.8007 122.865 55.194C124.009 54.5873 125.292 54.284 126.713 54.284C128.135 54.284 129.417 54.5873 130.561 55.194C131.705 55.8007 132.607 56.676 133.265 57.82C133.924 58.9467 134.253 60.2553 134.253 61.746C134.253 63.2367 133.915 64.554 133.239 65.698C132.581 66.8247 131.671 67.6913 130.509 68.298C129.365 68.9047 128.083 69.208 126.661 69.208ZM126.661 65.36C127.511 65.36 128.23 65.048 128.819 64.424C129.426 63.8 129.729 62.9073 129.729 61.746C129.729 60.5847 129.435 59.692 128.845 59.068C128.273 58.444 127.563 58.132 126.713 58.132C125.847 58.132 125.127 58.444 124.555 59.068C123.983 59.6747 123.697 60.5673 123.697 61.746C123.697 62.9073 123.975 63.8 124.529 64.424C125.101 65.048 125.812 65.36 126.661 65.36ZM144.8 58.808C143.17 57.9413 142.356 56.5807 142.356 54.726C142.356 53.79 142.598 52.9407 143.084 52.178C143.569 51.398 144.306 50.7827 145.294 50.332C146.282 49.864 147.495 49.63 148.934 49.63C150.372 49.63 151.577 49.864 152.548 50.332C153.536 50.7827 154.272 51.398 154.758 52.178C155.243 52.9407 155.486 53.79 155.486 54.726C155.486 55.662 155.26 56.4767 154.81 57.17C154.376 57.8633 153.787 58.4093 153.042 58.808C153.978 59.2587 154.697 59.8827 155.2 60.68C155.702 61.46 155.954 62.3787 155.954 63.436C155.954 64.6667 155.642 65.7327 155.018 66.634C154.394 67.518 153.544 68.194 152.47 68.662C151.412 69.13 150.234 69.364 148.934 69.364C147.634 69.364 146.446 69.13 145.372 68.662C144.314 68.194 143.474 67.518 142.85 66.634C142.226 65.7327 141.914 64.6667 141.914 63.436C141.914 62.3613 142.165 61.434 142.668 60.654C143.17 59.8567 143.881 59.2413 144.8 58.808ZM151.17 55.402C151.17 54.6913 150.962 54.1453 150.546 53.764C150.147 53.3653 149.61 53.166 148.934 53.166C148.258 53.166 147.712 53.3653 147.296 53.764C146.897 54.1627 146.698 54.7173 146.698 55.428C146.698 56.104 146.906 56.6413 147.322 57.04C147.738 57.4213 148.275 57.612 148.934 57.612C149.592 57.612 150.13 57.4127 150.546 57.014C150.962 56.6153 151.17 56.078 151.17 55.402ZM148.934 60.732C148.119 60.732 147.46 60.9573 146.958 61.408C146.455 61.8413 146.204 62.448 146.204 63.228C146.204 63.956 146.446 64.554 146.932 65.022C147.434 65.49 148.102 65.724 148.934 65.724C149.766 65.724 150.416 65.49 150.884 65.022C151.369 64.554 151.612 63.956 151.612 63.228C151.612 62.4653 151.36 61.8587 150.858 61.408C150.372 60.9573 149.731 60.732 148.934 60.732ZM163.765 64.892L160.879 72.354H158.045L159.553 64.892H163.765ZM178.12 53.348L171.594 69H167.044L173.648 53.842H165.562V50.046H178.12V53.348ZM190.266 44.3L183.298 73.862H179.008L185.976 44.3H190.266ZM191.231 54.154V50.02H198.433V69H193.805V54.154H191.231ZM214.839 53.894H206.727V57.482C207.073 57.1007 207.559 56.7887 208.183 56.546C208.807 56.3033 209.483 56.182 210.211 56.182C211.511 56.182 212.585 56.4767 213.435 57.066C214.301 57.6553 214.934 58.418 215.333 59.354C215.731 60.29 215.931 61.304 215.931 62.396C215.931 64.424 215.359 66.036 214.215 67.232C213.071 68.4107 211.459 69 209.379 69C207.992 69 206.787 68.766 205.765 68.298C204.742 67.8127 203.953 67.1453 203.399 66.296C202.844 65.4467 202.541 64.4673 202.489 63.358H206.831C206.935 63.8953 207.186 64.346 207.585 64.71C207.983 65.0567 208.529 65.23 209.223 65.23C210.037 65.23 210.644 64.97 211.043 64.45C211.441 63.93 211.641 63.2367 211.641 62.37C211.641 61.5207 211.433 60.8707 211.017 60.42C210.601 59.9693 209.994 59.744 209.197 59.744C208.607 59.744 208.122 59.8913 207.741 60.186C207.359 60.4633 207.108 60.836 206.987 61.304H202.697V49.994H214.839V53.894ZM227.693 69L223.273 62.916V69H218.827V49.76H223.273V60.394L227.667 54.492H233.153L227.121 61.772L233.205 69H227.693ZM241.425 64.84L244.571 54.492H249.303L244.155 69H238.669L233.521 54.492H238.279L241.425 64.84Z" fill="black"/>
<path d="M105.864 93.6V90.504H111.648V108H108.192V93.6H105.864ZM131.414 91.248V93.96H124.43V98.256H129.782V100.92H124.43V108H121.07V91.248H131.414ZM132.933 101.304C132.933 99.96 133.197 98.768 133.725 97.728C134.269 96.688 134.997 95.888 135.909 95.328C136.837 94.768 137.869 94.488 139.005 94.488C139.997 94.488 140.861 94.688 141.597 95.088C142.349 95.488 142.949 95.992 143.397 96.6V94.704H146.781V108H143.397V106.056C142.965 106.68 142.365 107.2 141.597 107.616C140.845 108.016 139.973 108.216 138.981 108.216C137.861 108.216 136.837 107.928 135.909 107.352C134.997 106.776 134.269 105.968 133.725 104.928C133.197 103.872 132.933 102.664 132.933 101.304ZM143.397 101.352C143.397 100.536 143.237 99.84 142.917 99.264C142.597 98.672 142.165 98.224 141.621 97.92C141.077 97.6 140.493 97.44 139.869 97.44C139.245 97.44 138.669 97.592 138.141 97.896C137.613 98.2 137.181 98.648 136.845 99.24C136.525 99.816 136.365 100.504 136.365 101.304C136.365 102.104 136.525 102.808 136.845 103.416C137.181 104.008 137.613 104.464 138.141 104.784C138.685 105.104 139.261 105.264 139.869 105.264C140.493 105.264 141.077 105.112 141.621 104.808C142.165 104.488 142.597 104.04 142.917 103.464C143.237 102.872 143.397 102.168 143.397 101.352ZM155.15 108.216C154.062 108.216 153.086 108.024 152.222 107.64C151.358 107.24 150.67 106.704 150.158 106.032C149.662 105.36 149.39 104.616 149.342 103.8H152.726C152.79 104.312 153.038 104.736 153.47 105.072C153.918 105.408 154.47 105.576 155.126 105.576C155.766 105.576 156.262 105.448 156.614 105.192C156.982 104.936 157.166 104.608 157.166 104.208C157.166 103.776 156.942 103.456 156.494 103.248C156.062 103.024 155.366 102.784 154.406 102.528C153.414 102.288 152.598 102.04 151.958 101.784C151.334 101.528 150.79 101.136 150.326 100.608C149.878 100.08 149.654 99.368 149.654 98.472C149.654 97.736 149.862 97.064 150.278 96.456C150.71 95.848 151.318 95.368 152.102 95.016C152.902 94.664 153.838 94.488 154.91 94.488C156.494 94.488 157.758 94.888 158.702 95.688C159.646 96.472 160.166 97.536 160.262 98.88H157.046C156.998 98.352 156.774 97.936 156.374 97.632C155.99 97.312 155.47 97.152 154.814 97.152C154.206 97.152 153.734 97.264 153.398 97.488C153.078 97.712 152.918 98.024 152.918 98.424C152.918 98.872 153.142 99.216 153.59 99.456C154.038 99.68 154.734 99.912 155.678 100.152C156.638 100.392 157.43 100.64 158.054 100.896C158.678 101.152 159.214 101.552 159.662 102.096C160.126 102.624 160.366 103.328 160.382 104.208C160.382 104.976 160.166 105.664 159.734 106.272C159.318 106.88 158.71 107.36 157.91 107.712C157.126 108.048 156.206 108.216 155.15 108.216ZM175.5 101.064C175.5 101.544 175.468 101.976 175.404 102.36H165.684C165.764 103.32 166.1 104.072 166.692 104.616C167.284 105.16 168.012 105.432 168.876 105.432C170.124 105.432 171.012 104.896 171.54 103.824H175.164C174.78 105.104 174.044 106.16 172.956 106.992C171.868 107.808 170.532 108.216 168.948 108.216C167.668 108.216 166.516 107.936 165.492 107.376C164.484 106.8 163.692 105.992 163.116 104.952C162.556 103.912 162.276 102.712 162.276 101.352C162.276 99.976 162.556 98.768 163.116 97.728C163.676 96.688 164.46 95.888 165.468 95.328C166.476 94.768 167.636 94.488 168.948 94.488C170.212 94.488 171.34 94.76 172.332 95.304C173.34 95.848 174.116 96.624 174.66 97.632C175.22 98.624 175.5 99.768 175.5 101.064ZM172.02 100.104C172.004 99.24 171.692 98.552 171.084 98.04C170.476 97.512 169.732 97.248 168.852 97.248C168.02 97.248 167.316 97.504 166.74 98.016C166.18 98.512 165.836 99.208 165.708 100.104H172.02Z" fill="black"/>
<circle cx="300" cy="10" r="10" fill="#B30000"/>
<circle cx="300" cy="10" r="5" fill="white"/>
</svg>
