<svg width="310" height="178" viewBox="0 0 310 178" fill="none" xmlns="http://www.w3.org/2000/svg">
<path d="M3 176L71 80H251L295 16" stroke="#B30000" stroke-width="5"/>
<path d="M43.058 50.748V69H38.612V50.748H43.058ZM52.182 69.208C50.9166 69.208 49.79 68.9913 48.802 68.558C47.814 68.1247 47.034 67.5353 46.462 66.79C45.89 66.0273 45.5693 65.178 45.5 64.242H49.894C49.946 64.7447 50.18 65.152 50.596 65.464C51.012 65.776 51.5233 65.932 52.13 65.932C52.6846 65.932 53.1093 65.828 53.404 65.62C53.716 65.3947 53.872 65.1087 53.872 64.762C53.872 64.346 53.6553 64.0427 53.222 63.852C52.7886 63.644 52.0866 63.4187 51.116 63.176C50.076 62.9333 49.2093 62.682 48.516 62.422C47.8226 62.1447 47.2246 61.72 46.722 61.148C46.2193 60.5587 45.968 59.77 45.968 58.782C45.968 57.95 46.1933 57.196 46.644 56.52C47.112 55.8267 47.788 55.2807 48.672 54.882C49.5733 54.4833 50.6393 54.284 51.87 54.284C53.69 54.284 55.12 54.7347 56.16 55.636C57.2173 56.5373 57.824 57.7333 57.98 59.224H53.872C53.8026 58.7213 53.5773 58.3227 53.196 58.028C52.832 57.7333 52.3466 57.586 51.74 57.586C51.22 57.586 50.8213 57.69 50.544 57.898C50.2666 58.0887 50.128 58.3573 50.128 58.704C50.128 59.12 50.3446 59.432 50.778 59.64C51.2286 59.848 51.922 60.056 52.858 60.264C53.9326 60.5413 54.808 60.8187 55.484 61.096C56.16 61.356 56.7493 61.7893 57.252 62.396C57.772 62.9853 58.0406 63.7827 58.058 64.788C58.058 65.6373 57.8153 66.4 57.33 67.076C56.862 67.7347 56.1773 68.2547 55.276 68.636C54.392 69.0173 53.3606 69.208 52.182 69.208ZM67.382 69.208C65.9607 69.208 64.678 68.9047 63.534 68.298C62.4073 67.6913 61.5147 66.8247 60.856 65.698C60.2147 64.5713 59.894 63.254 59.894 61.746C59.894 60.2553 60.2233 58.9467 60.882 57.82C61.5407 56.676 62.442 55.8007 63.586 55.194C64.73 54.5873 66.0127 54.284 67.434 54.284C68.8553 54.284 70.138 54.5873 71.282 55.194C72.426 55.8007 73.3273 56.676 73.986 57.82C74.6447 58.9467 74.974 60.2553 74.974 61.746C74.974 63.2367 74.636 64.554 73.96 65.698C73.3013 66.8247 72.3913 67.6913 71.23 68.298C70.086 68.9047 68.8033 69.208 67.382 69.208ZM67.382 65.36C68.2313 65.36 68.9507 65.048 69.54 64.424C70.1467 63.8 70.45 62.9073 70.45 61.746C70.45 60.5847 70.1553 59.692 69.566 59.068C68.994 58.444 68.2833 58.132 67.434 58.132C66.5673 58.132 65.848 58.444 65.276 59.068C64.704 59.6747 64.418 60.5673 64.418 61.746C64.418 62.9073 64.6953 63.8 65.25 64.424C65.822 65.048 66.5327 65.36 67.382 65.36ZM81.7787 49.76V69H77.3327V49.76H81.7787ZM84.1167 61.72C84.1167 60.2293 84.394 58.9207 84.9487 57.794C85.5207 56.6673 86.292 55.8007 87.2627 55.194C88.2333 54.5873 89.3167 54.284 90.5127 54.284C91.5353 54.284 92.428 54.492 93.1907 54.908C93.9707 55.324 94.5687 55.87 94.9847 56.546V54.492H99.4307V69H94.9847V66.946C94.5513 67.622 93.9447 68.168 93.1647 68.584C92.402 69 91.5093 69.208 90.4867 69.208C89.308 69.208 88.2333 68.9047 87.2627 68.298C86.292 67.674 85.5207 66.7987 84.9487 65.672C84.394 64.528 84.1167 63.2107 84.1167 61.72ZM94.9847 61.746C94.9847 60.6367 94.6727 59.7613 94.0487 59.12C93.442 58.4787 92.6967 58.158 91.8127 58.158C90.9287 58.158 90.1747 58.4787 89.5507 59.12C88.944 59.744 88.6407 60.6107 88.6407 61.72C88.6407 62.8293 88.944 63.7133 89.5507 64.372C90.1747 65.0133 90.9287 65.334 91.8127 65.334C92.6967 65.334 93.442 65.0133 94.0487 64.372C94.6727 63.7307 94.9847 62.8553 94.9847 61.746ZM101.763 61.72C101.763 60.2293 102.04 58.9207 102.595 57.794C103.167 56.6673 103.938 55.8007 104.909 55.194C105.88 54.5873 106.963 54.284 108.159 54.284C109.112 54.284 109.979 54.4833 110.759 54.882C111.556 55.2807 112.18 55.818 112.631 56.494V49.76H117.077V69H112.631V66.92C112.215 67.6133 111.617 68.168 110.837 68.584C110.074 69 109.182 69.208 108.159 69.208C106.963 69.208 105.88 68.9047 104.909 68.298C103.938 67.674 103.167 66.7987 102.595 65.672C102.04 64.528 101.763 63.2107 101.763 61.72ZM112.631 61.746C112.631 60.6367 112.319 59.7613 111.695 59.12C111.088 58.4787 110.343 58.158 109.459 58.158C108.575 58.158 107.821 58.4787 107.197 59.12C106.59 59.744 106.287 60.6107 106.287 61.72C106.287 62.8293 106.59 63.7133 107.197 64.372C107.821 65.0133 108.575 65.334 109.459 65.334C110.343 65.334 111.088 65.0133 111.695 64.372C112.319 63.7307 112.631 62.8553 112.631 61.746ZM126.898 69.208C125.476 69.208 124.194 68.9047 123.05 68.298C121.923 67.6913 121.03 66.8247 120.372 65.698C119.73 64.5713 119.41 63.254 119.41 61.746C119.41 60.2553 119.739 58.9467 120.398 57.82C121.056 56.676 121.958 55.8007 123.102 55.194C124.246 54.5873 125.528 54.284 126.95 54.284C128.371 54.284 129.654 54.5873 130.798 55.194C131.942 55.8007 132.843 56.676 133.502 57.82C134.16 58.9467 134.49 60.2553 134.49 61.746C134.49 63.2367 134.152 64.554 133.476 65.698C132.817 66.8247 131.907 67.6913 130.746 68.298C129.602 68.9047 128.319 69.208 126.898 69.208ZM126.898 65.36C127.747 65.36 128.466 65.048 129.056 64.424C129.662 63.8 129.966 62.9073 129.966 61.746C129.966 60.5847 129.671 59.692 129.082 59.068C128.51 58.444 127.799 58.132 126.95 58.132C126.083 58.132 125.364 58.444 124.792 59.068C124.22 59.6747 123.934 60.5673 123.934 61.746C123.934 62.9073 124.211 63.8 124.766 64.424C125.338 65.048 126.048 65.36 126.898 65.36ZM145.036 58.808C143.407 57.9413 142.592 56.5807 142.592 54.726C142.592 53.79 142.835 52.9407 143.32 52.178C143.805 51.398 144.542 50.7827 145.53 50.332C146.518 49.864 147.731 49.63 149.17 49.63C150.609 49.63 151.813 49.864 152.784 50.332C153.772 50.7827 154.509 51.398 154.994 52.178C155.479 52.9407 155.722 53.79 155.722 54.726C155.722 55.662 155.497 56.4767 155.046 57.17C154.613 57.8633 154.023 58.4093 153.278 58.808C154.214 59.2587 154.933 59.8827 155.436 60.68C155.939 61.46 156.19 62.3787 156.19 63.436C156.19 64.6667 155.878 65.7327 155.254 66.634C154.63 67.518 153.781 68.194 152.706 68.662C151.649 69.13 150.47 69.364 149.17 69.364C147.87 69.364 146.683 69.13 145.608 68.662C144.551 68.194 143.71 67.518 143.086 66.634C142.462 65.7327 142.15 64.6667 142.15 63.436C142.15 62.3613 142.401 61.434 142.904 60.654C143.407 59.8567 144.117 59.2413 145.036 58.808ZM151.406 55.402C151.406 54.6913 151.198 54.1453 150.782 53.764C150.383 53.3653 149.846 53.166 149.17 53.166C148.494 53.166 147.948 53.3653 147.532 53.764C147.133 54.1627 146.934 54.7173 146.934 55.428C146.934 56.104 147.142 56.6413 147.558 57.04C147.974 57.4213 148.511 57.612 149.17 57.612C149.829 57.612 150.366 57.4127 150.782 57.014C151.198 56.6153 151.406 56.078 151.406 55.402ZM149.17 60.732C148.355 60.732 147.697 60.9573 147.194 61.408C146.691 61.8413 146.44 62.448 146.44 63.228C146.44 63.956 146.683 64.554 147.168 65.022C147.671 65.49 148.338 65.724 149.17 65.724C150.002 65.724 150.652 65.49 151.12 65.022C151.605 64.554 151.848 63.956 151.848 63.228C151.848 62.4653 151.597 61.8587 151.094 61.408C150.609 60.9573 149.967 60.732 149.17 60.732ZM164.001 64.892L161.115 72.354H158.281L159.789 64.892H164.001ZM178.356 53.348L171.83 69H167.28L173.884 53.842H165.798V50.046H178.356V53.348ZM190.502 44.3L183.534 73.862H179.244L186.212 44.3H190.502ZM191.468 54.154V50.02H198.67V69H194.042V54.154H191.468ZM215.075 53.894H206.963V57.482C207.31 57.1007 207.795 56.7887 208.419 56.546C209.043 56.3033 209.719 56.182 210.447 56.182C211.747 56.182 212.822 56.4767 213.671 57.066C214.538 57.6553 215.17 58.418 215.569 59.354C215.968 60.29 216.167 61.304 216.167 62.396C216.167 64.424 215.595 66.036 214.451 67.232C213.307 68.4107 211.695 69 209.615 69C208.228 69 207.024 68.766 206.001 68.298C204.978 67.8127 204.19 67.1453 203.635 66.296C203.08 65.4467 202.777 64.4673 202.725 63.358H207.067C207.171 63.8953 207.422 64.346 207.821 64.71C208.22 65.0567 208.766 65.23 209.459 65.23C210.274 65.23 210.88 64.97 211.279 64.45C211.678 63.93 211.877 63.2367 211.877 62.37C211.877 61.5207 211.669 60.8707 211.253 60.42C210.837 59.9693 210.23 59.744 209.433 59.744C208.844 59.744 208.358 59.8913 207.977 60.186C207.596 60.4633 207.344 60.836 207.223 61.304H202.933V49.994H215.075V53.894ZM227.929 69L223.509 62.916V69H219.063V49.76H223.509V60.394L227.903 54.492H233.389L227.357 61.772L233.441 69H227.929ZM241.661 64.84L244.807 54.492H249.539L244.391 69H238.905L233.757 54.492H238.515L241.661 64.84Z" fill="black"/>
<path d="M110.864 93.6V90.504H116.648V108H113.192V93.6H110.864ZM136.414 91.248V93.96H129.43V98.256H134.782V100.92H129.43V108H126.07V91.248H136.414ZM137.933 101.304C137.933 99.96 138.197 98.768 138.725 97.728C139.269 96.688 139.997 95.888 140.909 95.328C141.837 94.768 142.869 94.488 144.005 94.488C144.997 94.488 145.861 94.688 146.597 95.088C147.349 95.488 147.949 95.992 148.397 96.6V94.704H151.781V108H148.397V106.056C147.965 106.68 147.365 107.2 146.597 107.616C145.845 108.016 144.973 108.216 143.981 108.216C142.861 108.216 141.837 107.928 140.909 107.352C139.997 106.776 139.269 105.968 138.725 104.928C138.197 103.872 137.933 102.664 137.933 101.304ZM148.397 101.352C148.397 100.536 148.237 99.84 147.917 99.264C147.597 98.672 147.165 98.224 146.621 97.92C146.077 97.6 145.493 97.44 144.869 97.44C144.245 97.44 143.669 97.592 143.141 97.896C142.613 98.2 142.181 98.648 141.845 99.24C141.525 99.816 141.365 100.504 141.365 101.304C141.365 102.104 141.525 102.808 141.845 103.416C142.181 104.008 142.613 104.464 143.141 104.784C143.685 105.104 144.261 105.264 144.869 105.264C145.493 105.264 146.077 105.112 146.621 104.808C147.165 104.488 147.597 104.04 147.917 103.464C148.237 102.872 148.397 102.168 148.397 101.352ZM160.15 108.216C159.062 108.216 158.086 108.024 157.222 107.64C156.358 107.24 155.67 106.704 155.158 106.032C154.662 105.36 154.39 104.616 154.342 103.8H157.726C157.79 104.312 158.038 104.736 158.47 105.072C158.918 105.408 159.47 105.576 160.126 105.576C160.766 105.576 161.262 105.448 161.614 105.192C161.982 104.936 162.166 104.608 162.166 104.208C162.166 103.776 161.942 103.456 161.494 103.248C161.062 103.024 160.366 102.784 159.406 102.528C158.414 102.288 157.598 102.04 156.958 101.784C156.334 101.528 155.79 101.136 155.326 100.608C154.878 100.08 154.654 99.368 154.654 98.472C154.654 97.736 154.862 97.064 155.278 96.456C155.71 95.848 156.318 95.368 157.102 95.016C157.902 94.664 158.838 94.488 159.91 94.488C161.494 94.488 162.758 94.888 163.702 95.688C164.646 96.472 165.166 97.536 165.262 98.88H162.046C161.998 98.352 161.774 97.936 161.374 97.632C160.99 97.312 160.47 97.152 159.814 97.152C159.206 97.152 158.734 97.264 158.398 97.488C158.078 97.712 157.918 98.024 157.918 98.424C157.918 98.872 158.142 99.216 158.59 99.456C159.038 99.68 159.734 99.912 160.678 100.152C161.638 100.392 162.43 100.64 163.054 100.896C163.678 101.152 164.214 101.552 164.662 102.096C165.126 102.624 165.366 103.328 165.382 104.208C165.382 104.976 165.166 105.664 164.734 106.272C164.318 106.88 163.71 107.36 162.91 107.712C162.126 108.048 161.206 108.216 160.15 108.216ZM180.5 101.064C180.5 101.544 180.468 101.976 180.404 102.36H170.684C170.764 103.32 171.1 104.072 171.692 104.616C172.284 105.16 173.012 105.432 173.876 105.432C175.124 105.432 176.012 104.896 176.54 103.824H180.164C179.78 105.104 179.044 106.16 177.956 106.992C176.868 107.808 175.532 108.216 173.948 108.216C172.668 108.216 171.516 107.936 170.492 107.376C169.484 106.8 168.692 105.992 168.116 104.952C167.556 103.912 167.276 102.712 167.276 101.352C167.276 99.976 167.556 98.768 168.116 97.728C168.676 96.688 169.46 95.888 170.468 95.328C171.476 94.768 172.636 94.488 173.948 94.488C175.212 94.488 176.34 94.76 177.332 95.304C178.34 95.848 179.116 96.624 179.66 97.632C180.22 98.624 180.5 99.768 180.5 101.064ZM177.02 100.104C177.004 99.24 176.692 98.552 176.084 98.04C175.476 97.512 174.732 97.248 173.852 97.248C173.02 97.248 172.316 97.504 171.74 98.016C171.18 98.512 170.836 99.208 170.708 100.104H177.02Z" fill="black"/>
<circle cx="300" cy="10" r="10" fill="#B30000"/>
<circle cx="300" cy="10" r="5" fill="white"/>
</svg>
