<svg width="310" height="178" viewBox="0 0 310 178" fill="none" xmlns="http://www.w3.org/2000/svg">
<path d="M3 176L71 80H251L295 16" stroke="#B30000" stroke-width="5"/>
<path d="M58.058 50.748V69H53.612V50.748H58.058ZM67.182 69.208C65.9166 69.208 64.79 68.9913 63.802 68.558C62.814 68.1247 62.034 67.5353 61.462 66.79C60.89 66.0273 60.5693 65.178 60.5 64.242H64.894C64.946 64.7447 65.18 65.152 65.596 65.464C66.012 65.776 66.5233 65.932 67.13 65.932C67.6846 65.932 68.1093 65.828 68.404 65.62C68.716 65.3947 68.872 65.1087 68.872 64.762C68.872 64.346 68.6553 64.0427 68.222 63.852C67.7886 63.644 67.0866 63.4187 66.116 63.176C65.076 62.9333 64.2093 62.682 63.516 62.422C62.8226 62.1447 62.2246 61.72 61.722 61.148C61.2193 60.5587 60.968 59.77 60.968 58.782C60.968 57.95 61.1933 57.196 61.644 56.52C62.112 55.8267 62.788 55.2807 63.672 54.882C64.5733 54.4833 65.6393 54.284 66.87 54.284C68.69 54.284 70.12 54.7347 71.16 55.636C72.2173 56.5373 72.824 57.7333 72.98 59.224H68.872C68.8026 58.7213 68.5773 58.3227 68.196 58.028C67.832 57.7333 67.3466 57.586 66.74 57.586C66.22 57.586 65.8213 57.69 65.544 57.898C65.2666 58.0887 65.128 58.3573 65.128 58.704C65.128 59.12 65.3446 59.432 65.778 59.64C66.2286 59.848 66.922 60.056 67.858 60.264C68.9326 60.5413 69.808 60.8187 70.484 61.096C71.16 61.356 71.7493 61.7893 72.252 62.396C72.772 62.9853 73.0406 63.7827 73.058 64.788C73.058 65.6373 72.8153 66.4 72.33 67.076C71.862 67.7347 71.1773 68.2547 70.276 68.636C69.392 69.0173 68.3606 69.208 67.182 69.208ZM82.382 69.208C80.9607 69.208 79.678 68.9047 78.534 68.298C77.4073 67.6913 76.5147 66.8247 75.856 65.698C75.2147 64.5713 74.894 63.254 74.894 61.746C74.894 60.2553 75.2233 58.9467 75.882 57.82C76.5407 56.676 77.442 55.8007 78.586 55.194C79.73 54.5873 81.0127 54.284 82.434 54.284C83.8553 54.284 85.138 54.5873 86.282 55.194C87.426 55.8007 88.3273 56.676 88.986 57.82C89.6447 58.9467 89.974 60.2553 89.974 61.746C89.974 63.2367 89.636 64.554 88.96 65.698C88.3013 66.8247 87.3913 67.6913 86.23 68.298C85.086 68.9047 83.8033 69.208 82.382 69.208ZM82.382 65.36C83.2313 65.36 83.9507 65.048 84.54 64.424C85.1467 63.8 85.45 62.9073 85.45 61.746C85.45 60.5847 85.1553 59.692 84.566 59.068C83.994 58.444 83.2833 58.132 82.434 58.132C81.5673 58.132 80.848 58.444 80.276 59.068C79.704 59.6747 79.418 60.5673 79.418 61.746C79.418 62.9073 79.6953 63.8 80.25 64.424C80.822 65.048 81.5327 65.36 82.382 65.36ZM96.7787 49.76V69H92.3327V49.76H96.7787ZM99.1167 61.72C99.1167 60.2293 99.394 58.9207 99.9487 57.794C100.521 56.6673 101.292 55.8007 102.263 55.194C103.233 54.5873 104.317 54.284 105.513 54.284C106.535 54.284 107.428 54.492 108.191 54.908C108.971 55.324 109.569 55.87 109.985 56.546V54.492H114.431V69H109.985V66.946C109.551 67.622 108.945 68.168 108.165 68.584C107.402 69 106.509 69.208 105.487 69.208C104.308 69.208 103.233 68.9047 102.263 68.298C101.292 67.674 100.521 66.7987 99.9487 65.672C99.394 64.528 99.1167 63.2107 99.1167 61.72ZM109.985 61.746C109.985 60.6367 109.673 59.7613 109.049 59.12C108.442 58.4787 107.697 58.158 106.813 58.158C105.929 58.158 105.175 58.4787 104.551 59.12C103.944 59.744 103.641 60.6107 103.641 61.72C103.641 62.8293 103.944 63.7133 104.551 64.372C105.175 65.0133 105.929 65.334 106.813 65.334C107.697 65.334 108.442 65.0133 109.049 64.372C109.673 63.7307 109.985 62.8553 109.985 61.746ZM116.763 61.72C116.763 60.2293 117.04 58.9207 117.595 57.794C118.167 56.6673 118.938 55.8007 119.909 55.194C120.88 54.5873 121.963 54.284 123.159 54.284C124.112 54.284 124.979 54.4833 125.759 54.882C126.556 55.2807 127.18 55.818 127.631 56.494V49.76H132.077V69H127.631V66.92C127.215 67.6133 126.617 68.168 125.837 68.584C125.074 69 124.182 69.208 123.159 69.208C121.963 69.208 120.88 68.9047 119.909 68.298C118.938 67.674 118.167 66.7987 117.595 65.672C117.04 64.528 116.763 63.2107 116.763 61.72ZM127.631 61.746C127.631 60.6367 127.319 59.7613 126.695 59.12C126.088 58.4787 125.343 58.158 124.459 58.158C123.575 58.158 122.821 58.4787 122.197 59.12C121.59 59.744 121.287 60.6107 121.287 61.72C121.287 62.8293 121.59 63.7133 122.197 64.372C122.821 65.0133 123.575 65.334 124.459 65.334C125.343 65.334 126.088 65.0133 126.695 64.372C127.319 63.7307 127.631 62.8553 127.631 61.746ZM141.898 69.208C140.476 69.208 139.194 68.9047 138.05 68.298C136.923 67.6913 136.03 66.8247 135.372 65.698C134.73 64.5713 134.41 63.254 134.41 61.746C134.41 60.2553 134.739 58.9467 135.398 57.82C136.056 56.676 136.958 55.8007 138.102 55.194C139.246 54.5873 140.528 54.284 141.95 54.284C143.371 54.284 144.654 54.5873 145.798 55.194C146.942 55.8007 147.843 56.676 148.502 57.82C149.16 58.9467 149.49 60.2553 149.49 61.746C149.49 63.2367 149.152 64.554 148.476 65.698C147.817 66.8247 146.907 67.6913 145.746 68.298C144.602 68.9047 143.319 69.208 141.898 69.208ZM141.898 65.36C142.747 65.36 143.466 65.048 144.056 64.424C144.662 63.8 144.966 62.9073 144.966 61.746C144.966 60.5847 144.671 59.692 144.082 59.068C143.51 58.444 142.799 58.132 141.95 58.132C141.083 58.132 140.364 58.444 139.792 59.068C139.22 59.6747 138.934 60.5673 138.934 61.746C138.934 62.9073 139.211 63.8 139.766 64.424C140.338 65.048 141.048 65.36 141.898 65.36ZM156.916 59.25C156.916 56.2687 157.488 53.92 158.632 52.204C159.793 50.488 161.657 49.63 164.222 49.63C166.787 49.63 168.642 50.488 169.786 52.204C170.947 53.92 171.528 56.2687 171.528 59.25C171.528 62.266 170.947 64.632 169.786 66.348C168.642 68.064 166.787 68.922 164.222 68.922C161.657 68.922 159.793 68.064 158.632 66.348C157.488 64.632 156.916 62.266 156.916 59.25ZM167.16 59.25C167.16 57.4993 166.969 56.156 166.588 55.22C166.207 54.2667 165.418 53.79 164.222 53.79C163.026 53.79 162.237 54.2667 161.856 55.22C161.475 56.156 161.284 57.4993 161.284 59.25C161.284 60.4287 161.353 61.408 161.492 62.188C161.631 62.9507 161.908 63.5747 162.324 64.06C162.757 64.528 163.39 64.762 164.222 64.762C165.054 64.762 165.678 64.528 166.094 64.06C166.527 63.5747 166.813 62.9507 166.952 62.188C167.091 61.408 167.16 60.4287 167.16 59.25ZM179.103 64.892L176.217 72.354H173.383L174.891 64.892H179.103ZM190.728 55.142C190.589 54.5007 190.347 54.024 190 53.712C189.653 53.3827 189.159 53.218 188.518 53.218C187.53 53.218 186.819 53.6513 186.386 54.518C185.953 55.3673 185.727 56.7193 185.71 58.574C186.091 57.9673 186.637 57.4907 187.348 57.144C188.076 56.7973 188.873 56.624 189.74 56.624C191.439 56.624 192.799 57.1613 193.822 58.236C194.862 59.3107 195.382 60.81 195.382 62.734C195.382 63.9993 195.122 65.1087 194.602 66.062C194.099 67.0153 193.354 67.7607 192.366 68.298C191.395 68.8353 190.243 69.104 188.908 69.104C186.239 69.104 184.384 68.272 183.344 66.608C182.304 64.9267 181.784 62.5173 181.784 59.38C181.784 56.0867 182.33 53.6427 183.422 52.048C184.531 50.436 186.299 49.63 188.726 49.63C190.026 49.63 191.118 49.89 192.002 50.41C192.903 50.9127 193.579 51.58 194.03 52.412C194.498 53.244 194.775 54.154 194.862 55.142H190.728ZM188.674 60.134C187.929 60.134 187.305 60.3593 186.802 60.81C186.317 61.2433 186.074 61.8673 186.074 62.682C186.074 63.514 186.299 64.164 186.75 64.632C187.218 65.1 187.877 65.334 188.726 65.334C189.489 65.334 190.087 65.1087 190.52 64.658C190.971 64.19 191.196 63.5573 191.196 62.76C191.196 61.9453 190.979 61.304 190.546 60.836C190.113 60.368 189.489 60.134 188.674 60.134ZM208.245 44.3L201.277 73.862H196.987L203.955 44.3H208.245ZM209.21 54.154V50.02H216.412V69H211.784V54.154H209.21ZM228.761 69L224.341 62.916V69H219.895V49.76H224.341V60.394L228.735 54.492H234.221L228.189 61.772L234.273 69H228.761ZM242.493 64.84L245.639 54.492H250.371L245.223 69H239.737L234.589 54.492H239.347L242.493 64.84Z" fill="black"/>
<path d="M102.864 93.6V90.504H108.648V108H105.192V93.6H102.864ZM128.414 91.248V93.96H121.43V98.256H126.782V100.92H121.43V108H118.07V91.248H128.414ZM129.933 101.304C129.933 99.96 130.197 98.768 130.725 97.728C131.269 96.688 131.997 95.888 132.909 95.328C133.837 94.768 134.869 94.488 136.005 94.488C136.997 94.488 137.861 94.688 138.597 95.088C139.349 95.488 139.949 95.992 140.397 96.6V94.704H143.781V108H140.397V106.056C139.965 106.68 139.365 107.2 138.597 107.616C137.845 108.016 136.973 108.216 135.981 108.216C134.861 108.216 133.837 107.928 132.909 107.352C131.997 106.776 131.269 105.968 130.725 104.928C130.197 103.872 129.933 102.664 129.933 101.304ZM140.397 101.352C140.397 100.536 140.237 99.84 139.917 99.264C139.597 98.672 139.165 98.224 138.621 97.92C138.077 97.6 137.493 97.44 136.869 97.44C136.245 97.44 135.669 97.592 135.141 97.896C134.613 98.2 134.181 98.648 133.845 99.24C133.525 99.816 133.365 100.504 133.365 101.304C133.365 102.104 133.525 102.808 133.845 103.416C134.181 104.008 134.613 104.464 135.141 104.784C135.685 105.104 136.261 105.264 136.869 105.264C137.493 105.264 138.077 105.112 138.621 104.808C139.165 104.488 139.597 104.04 139.917 103.464C140.237 102.872 140.397 102.168 140.397 101.352ZM152.15 108.216C151.062 108.216 150.086 108.024 149.222 107.64C148.358 107.24 147.67 106.704 147.158 106.032C146.662 105.36 146.39 104.616 146.342 103.8H149.726C149.79 104.312 150.038 104.736 150.47 105.072C150.918 105.408 151.47 105.576 152.126 105.576C152.766 105.576 153.262 105.448 153.614 105.192C153.982 104.936 154.166 104.608 154.166 104.208C154.166 103.776 153.942 103.456 153.494 103.248C153.062 103.024 152.366 102.784 151.406 102.528C150.414 102.288 149.598 102.04 148.958 101.784C148.334 101.528 147.79 101.136 147.326 100.608C146.878 100.08 146.654 99.368 146.654 98.472C146.654 97.736 146.862 97.064 147.278 96.456C147.71 95.848 148.318 95.368 149.102 95.016C149.902 94.664 150.838 94.488 151.91 94.488C153.494 94.488 154.758 94.888 155.702 95.688C156.646 96.472 157.166 97.536 157.262 98.88H154.046C153.998 98.352 153.774 97.936 153.374 97.632C152.99 97.312 152.47 97.152 151.814 97.152C151.206 97.152 150.734 97.264 150.398 97.488C150.078 97.712 149.918 98.024 149.918 98.424C149.918 98.872 150.142 99.216 150.59 99.456C151.038 99.68 151.734 99.912 152.678 100.152C153.638 100.392 154.43 100.64 155.054 100.896C155.678 101.152 156.214 101.552 156.662 102.096C157.126 102.624 157.366 103.328 157.382 104.208C157.382 104.976 157.166 105.664 156.734 106.272C156.318 106.88 155.71 107.36 154.91 107.712C154.126 108.048 153.206 108.216 152.15 108.216ZM172.5 101.064C172.5 101.544 172.468 101.976 172.404 102.36H162.684C162.764 103.32 163.1 104.072 163.692 104.616C164.284 105.16 165.012 105.432 165.876 105.432C167.124 105.432 168.012 104.896 168.54 103.824H172.164C171.78 105.104 171.044 106.16 169.956 106.992C168.868 107.808 167.532 108.216 165.948 108.216C164.668 108.216 163.516 107.936 162.492 107.376C161.484 106.8 160.692 105.992 160.116 104.952C159.556 103.912 159.276 102.712 159.276 101.352C159.276 99.976 159.556 98.768 160.116 97.728C160.676 96.688 161.46 95.888 162.468 95.328C163.476 94.768 164.636 94.488 165.948 94.488C167.212 94.488 168.34 94.76 169.332 95.304C170.34 95.848 171.116 96.624 171.66 97.632C172.22 98.624 172.5 99.768 172.5 101.064ZM169.02 100.104C169.004 99.24 168.692 98.552 168.084 98.04C167.476 97.512 166.732 97.248 165.852 97.248C165.02 97.248 164.316 97.504 163.74 98.016C163.18 98.512 162.836 99.208 162.708 100.104H169.02Z" fill="black"/>
<circle cx="300" cy="10" r="10" fill="#B30000"/>
<circle cx="300" cy="10" r="5" fill="white"/>
</svg>
