<svg width="290" height="168" viewBox="0 0 290 168" fill="none" xmlns="http://www.w3.org/2000/svg">
<path d="M0.78125 5C0.78125 2.23858 3.01983 0 5.78125 0H284.531C287.293 0 289.531 2.23858 289.531 5V163C289.531 165.761 287.293 168 284.531 168H5.78126C3.01983 168 0.78125 165.761 0.78125 163V5Z" fill="#006A97"/>
<path d="M57.7373 68.536V91H52.2653V68.536H57.7373Z" fill="white"/>
<path d="M60.7747 79.736C60.7747 77.5173 61.2547 75.544 62.2147 73.816C63.1747 72.0667 64.5081 70.712 66.2148 69.752C67.9428 68.7707 69.8947 68.28 72.0707 68.28C74.7374 68.28 77.0201 68.984 78.9187 70.392C80.8174 71.8 82.0868 73.72 82.7268 76.152H76.7108C76.2628 75.2133 75.6227 74.4987 74.7907 74.008C73.9801 73.5173 73.0521 73.272 72.0068 73.272C70.3214 73.272 68.9561 73.8587 67.9108 75.032C66.8654 76.2053 66.3428 77.7733 66.3428 79.736C66.3428 81.6987 66.8654 83.2667 67.9108 84.44C68.9561 85.6133 70.3214 86.2 72.0068 86.2C73.0521 86.2 73.9801 85.9547 74.7907 85.464C75.6227 84.9733 76.2628 84.2587 76.7108 83.32H82.7268C82.0868 85.752 80.8174 87.672 78.9187 89.08C77.0201 90.4667 74.7374 91.16 72.0707 91.16C69.8947 91.16 67.9428 90.68 66.2148 89.72C64.5081 88.7387 63.1747 87.384 62.2147 85.656C61.2547 83.928 60.7747 81.9547 60.7747 79.736Z" fill="white"/>
<path d="M84.9898 82.04C84.9898 80.2053 85.3311 78.5947 86.0137 77.208C86.7177 75.8213 87.6671 74.7547 88.8617 74.008C90.0564 73.2613 91.3897 72.888 92.8617 72.888C94.1204 72.888 95.2191 73.144 96.1578 73.656C97.1178 74.168 97.8538 74.84 98.3658 75.672V73.144H103.838V91H98.3658V88.472C97.8324 89.304 97.0857 89.976 96.1257 90.488C95.1871 91 94.0884 91.256 92.8298 91.256C91.3791 91.256 90.0564 90.8827 88.8617 90.136C87.6671 89.368 86.7177 88.2907 86.0137 86.904C85.3311 85.496 84.9898 83.8747 84.9898 82.04ZM98.3658 82.072C98.3658 80.7067 97.9818 79.6293 97.2138 78.84C96.4671 78.0507 95.5497 77.656 94.4617 77.656C93.3737 77.656 92.4457 78.0507 91.6777 78.84C90.9311 79.608 90.5577 80.6747 90.5577 82.04C90.5577 83.4053 90.9311 84.4933 91.6777 85.304C92.4457 86.0933 93.3737 86.488 94.4617 86.488C95.5497 86.488 96.4671 86.0933 97.2138 85.304C97.9818 84.5147 98.3658 83.4373 98.3658 82.072Z" fill="white"/>
<path d="M130.581 72.952C132.799 72.952 134.559 73.624 135.861 74.968C137.183 76.312 137.844 78.1787 137.844 80.568V91H132.404V81.304C132.404 80.152 132.095 79.2667 131.477 78.648C130.879 78.008 130.047 77.688 128.98 77.688C127.914 77.688 127.071 78.008 126.452 78.648C125.855 79.2667 125.557 80.152 125.557 81.304V91H120.117V81.304C120.117 80.152 119.807 79.2667 119.188 78.648C118.591 78.008 117.759 77.688 116.692 77.688C115.626 77.688 114.783 78.008 114.164 78.648C113.567 79.2667 113.269 80.152 113.269 81.304V91H107.797V73.144H113.269V75.384C113.823 74.6373 114.549 74.0507 115.445 73.624C116.341 73.176 117.354 72.952 118.484 72.952C119.828 72.952 121.023 73.24 122.068 73.816C123.135 74.392 123.967 75.2133 124.564 76.28C125.183 75.2987 126.026 74.4987 127.092 73.88C128.159 73.2613 129.322 72.952 130.581 72.952Z" fill="white"/>
<path d="M147.143 75.672C147.677 74.84 148.413 74.168 149.352 73.656C150.29 73.144 151.389 72.888 152.648 72.888C154.12 72.888 155.453 73.2613 156.648 74.008C157.842 74.7547 158.781 75.8213 159.464 77.208C160.168 78.5947 160.52 80.2053 160.52 82.04C160.52 83.8747 160.168 85.496 159.464 86.904C158.781 88.2907 157.842 89.368 156.648 90.136C155.453 90.8827 154.12 91.256 152.648 91.256C151.41 91.256 150.312 91 149.352 90.488C148.413 89.976 147.677 89.3147 147.143 88.504V99.512H141.671V73.144H147.143V75.672ZM154.952 82.04C154.952 80.6747 154.567 79.608 153.799 78.84C153.053 78.0507 152.125 77.656 151.016 77.656C149.928 77.656 149 78.0507 148.232 78.84C147.485 79.6293 147.111 80.7067 147.111 82.072C147.111 83.4373 147.485 84.5147 148.232 85.304C149 86.0933 149.928 86.488 151.016 86.488C152.104 86.488 153.031 86.0933 153.799 85.304C154.567 84.4933 154.952 83.4053 154.952 82.04Z" fill="white"/>
<path d="M186.174 72.952C188.393 72.952 190.153 73.624 191.454 74.968C192.777 76.312 193.438 78.1787 193.438 80.568V91H187.998V81.304C187.998 80.152 187.689 79.2667 187.07 78.648C186.473 78.008 185.641 77.688 184.574 77.688C183.508 77.688 182.665 78.008 182.046 78.648C181.449 79.2667 181.15 80.152 181.15 81.304V91H175.71V81.304C175.71 80.152 175.401 79.2667 174.782 78.648C174.185 78.008 173.353 77.688 172.286 77.688C171.22 77.688 170.377 78.008 169.758 78.648C169.161 79.2667 168.862 80.152 168.862 81.304V91H163.39V73.144H168.862V75.384C169.417 74.6373 170.142 74.0507 171.038 73.624C171.934 73.176 172.948 72.952 174.078 72.952C175.422 72.952 176.617 73.24 177.662 73.816C178.729 74.392 179.561 75.2133 180.158 76.28C180.777 75.2987 181.62 74.4987 182.686 73.88C183.753 73.2613 184.916 72.952 186.174 72.952Z" fill="white"/>
<path d="M196.177 82.04C196.177 80.2053 196.519 78.5947 197.201 77.208C197.905 75.8213 198.855 74.7547 200.049 74.008C201.244 73.2613 202.577 72.888 204.049 72.888C205.308 72.888 206.407 73.144 207.345 73.656C208.305 74.168 209.041 74.84 209.553 75.672V73.144H215.025V91H209.553V88.472C209.02 89.304 208.273 89.976 207.313 90.488C206.375 91 205.276 91.256 204.017 91.256C202.567 91.256 201.244 90.8827 200.049 90.136C198.855 89.368 197.905 88.2907 197.201 86.904C196.519 85.496 196.177 83.8747 196.177 82.04ZM209.553 82.072C209.553 80.7067 209.169 79.6293 208.401 78.84C207.655 78.0507 206.737 77.656 205.649 77.656C204.561 77.656 203.633 78.0507 202.865 78.84C202.119 79.608 201.745 80.6747 201.745 82.04C201.745 83.4053 202.119 84.4933 202.865 85.304C203.633 86.0933 204.561 86.488 205.649 86.488C206.737 86.488 207.655 86.0933 208.401 85.304C209.169 84.5147 209.553 83.4373 209.553 82.072Z" fill="white"/>
<path d="M228.936 86.36V91H226.152C224.168 91 222.621 90.52 221.512 89.56C220.403 88.5787 219.848 86.9893 219.848 84.792V77.688H217.672V73.144H219.848V68.792H225.32V73.144H228.904V77.688H225.32V84.856C225.32 85.3893 225.448 85.7733 225.704 86.008C225.96 86.2427 226.387 86.36 226.984 86.36H228.936Z" fill="white"/>
</svg>
